Format                           : AVI
Format/Info                      : Audio Video Interleave
File size                        : 894 MiB
Duration                         : 2h 17mn
Overall bit rate                 : 911 Kbps

Video
ID                               : 0
Format                           : MPEG-4 Visual
Format profile                   : Simple@L1
Format settings, BVOP            : No
Format settings, QPel            : No
Format settings, GMC             : No warppoints
Format settings, Matrix          : Default (MPEG)
Codec ID                         : DX50
Codec ID/Hint                    : DivX 5
Duration                         : 2h 17mn
Bit rate                         : 801 Kbps
Width                            : 640 pixels
Height                           : 322 pixels
Display aspect ratio             : 1.988
Frame rate                       : 29.970 fps
Resolution                       : 8 bits
Colorimetry                      : 4:2:0
Scan type                        : Progressive
Bits/(Pixel*Frame)               : 0.130
Stream size                      : 786 MiB (88%)
Writing library                  : Lavc51.40.4

Audio
ID                               : 1
Format                           : MPEG Audio
Format version                   : Version 1
Format profile                   : Layer 3
Codec ID                         : 55
Codec ID/Hint                    : MP3
Duration                         : 2h 17mn
Bit rate mode                    : Constant
Bit rate                         : 96.0 Kbps
Channel(s)                       : 2 channels
Sampling rate                    : 48.0 KHz
Stream size                      : 94.3 MiB (11%)
Alignment                        : Split accross interleaves
Interleave, duration             : 24 ms (0.72 video frame)